<?xml version="1.0" encoding="UTF-8"?>
<svg version="1.1" xmlns="http://www.w3.org/2000/svg" width="900" height="400">
<path d="M0 0 C1.53266582 3.06533164 1.10276471 6.26754272 1.0625 9.625 C1.05798828 10.33140625 1.05347656 11.0378125 1.04882812 11.765625 C1.03703875 13.51045275 1.01910324 15.255237 1 17 C4.21487158 18.07162386 6.85017203 18.01792125 10.20751953 17.93457031 C24.10814417 17.60067069 38.60810159 18.53070207 50.41015625 26.66015625 C55.13543615 30.00379012 55.13543615 30.00379012 60.6796875 30.97265625 C63.19375707 30.46163617 65.55902927 29.78357212 68 29 C71.50814594 28.16472716 74.70911613 27.88945488 78.3125 27.9375 C79.63701172 27.95103516 79.63701172 27.95103516 80.98828125 27.96484375 C81.98408203 27.98224609 81.98408203 27.98224609 83 28 C83 30.31 83 32.62 83 35 C82.34 35 81.68 35 81 35 C80.9175 36.155 80.835 37.31 80.75 38.5 C80.36638978 41.85216318 79.51995008 44.10250895 77.8125 47 C76.03976842 50.30139142 75.98440774 50.89258667 76.5625 54.875 C77.01328808 56.2595634 77.49427575 57.63454452 78 59 C82.1111312 70.75783522 83.99962432 83.51701975 79.03125 95.296875 C74.18879578 104.78546773 67.10327774 111.62653744 58 117 C66.76088725 121.90815371 78.17434314 121.3682156 87.9375 121.625 C89.10990234 121.66367188 90.28230469 121.70234375 91.49023438 121.7421875 C99.32834201 121.98455858 107.15854855 122.04400274 115 122 C114.98428955 121.42556152 114.9685791 120.85112305 114.95239258 120.25927734 C114.88964487 117.63128691 114.85088494 115.00345463 114.8125 112.375 C114.78736328 111.47136719 114.76222656 110.56773437 114.73632812 109.63671875 C114.67829702 104.3365449 114.90473538 100.52117304 118 96 C125.50380943 88.96803254 139.3255057 90.42648583 149 90 C150.61178237 85.4547737 152.0608167 80.98571242 153 76.25 C153.7482935 72.68937009 154.73500233 69.92562199 157 67 C157.66 67 158.32 67 159 67 C159.185625 65.5459375 159.185625 65.5459375 159.375 64.0625 C161.35136696 57.24887123 167.89525744 53.0555208 173.54296875 49.31640625 C181.32506995 45.1604581 189.42911811 44.87741048 198 46 C203.2399631 47.80345613 207.42198091 50.75938478 211 55 C211.680625 55.721875 212.36125 56.44375 213.0625 57.1875 C215.62628186 60.90911883 216.78356686 64.67929269 218 69 C218.4021875 70.3303125 218.4021875 70.3303125 218.8125 71.6875 C219.06557084 74.808707 218.1390903 77.1187716 217 80 C216.34 80 215.68 80 215 80 C214.67 80.99 214.34 81.98 214 83 C210.9056978 84.31507844 207.53407367 84.16465286 204.21191406 84.29052734 C194.20960278 84.67251407 184.61131529 85.45530418 176 91 C176.73863281 91.21914062 177.47726562 91.43828125 178.23828125 91.6640625 C194.23698681 96.66492853 206.01882396 103.94796773 214 119 C219.08684904 130.90658073 219.2839491 143.08774165 215.55859375 155.40625 C214.97231112 158.12856937 215.10779334 159.41042458 216 162 C217.34258081 167.37032324 216.95765202 170.44268397 214.29296875 175.14453125 C209.95899302 181.36398282 203.60183768 184.11569004 196.37646484 185.50415039 C193.44256676 185.93212736 190.50876853 186.29283418 187.5625 186.625 C186.51078613 186.75052246 185.45907227 186.87604492 184.37548828 187.00537109 C176.74448865 187.88475406 169.13433234 188.4674232 161.4609375 188.7890625 C158.24027028 188.98535599 155.16866413 189.40526612 152 190 C152.03480469 191.27875 152.06960938 192.5575 152.10546875 193.875 C152.13362787 195.58332009 152.16092574 197.29165452 152.1875 199 C152.21263672 199.83917969 152.23777344 200.67835938 152.26367188 201.54296875 C152.33188893 207.40963542 151.4826415 211.66232077 149 217 C144.08442144 221.91557856 139.87757831 222.16286996 133.125 222.25 C131.33449219 222.28867187 131.33449219 222.28867187 129.5078125 222.328125 C124.42837954 221.85298873 121.18546944 220.24954887 117.6875 216.5625 C115.07989363 212.60280144 114.87597746 209.25335446 114.7890625 204.5703125 C114.76070312 203.52746094 114.73234375 202.48460937 114.703125 201.41015625 C114.65123145 199.22803254 114.60690421 197.04571518 114.5703125 194.86328125 C114.40064939 189.13008197 114.08971793 185.0063344 111 180 C111 179.34 111 178.68 111 178 C105.51758897 176.28813007 100.11953272 175.29919747 94.4375 174.5 C92.64840811 174.24499775 90.85934569 173.98978869 89.0703125 173.734375 C88.20180664 173.61126953 87.33330078 173.48816406 86.43847656 173.36132812 C84.34681596 173.05139043 82.26222524 172.69437908 80.1796875 172.328125 C65.9044948 169.87716384 52.66020014 171.17394127 39 176 C37.99582031 176.34933594 36.99164063 176.69867188 35.95703125 177.05859375 C25.92163919 180.88980684 16.91579127 186.79474686 8.5625 193.5 C5.12451073 196.12991487 2.43721197 197.16744196 -2 197 C-4.80189446 195.23358828 -6.51524911 193.96950178 -8 191 C-8.6267194 185.77733837 -7.82916969 182.44711803 -4.96484375 178.1796875 C-1.9239088 174.80624476 1.6586994 172.19478368 5.3659668 169.58862305 C8.86474974 167.09153457 11.16609067 164.9123399 13 161 C13.25196129 158.29046449 13.25196129 158.29046449 13 156 C10.03434727 156 8.26661987 156.47379408 5.5 157.4375 C4.7265625 157.70433594 3.953125 157.97117188 3.15625 158.24609375 C2.4446875 158.49488281 1.733125 158.74367187 1 159 C-2 160 -2 160 -5 159 C-5 159.66 -5 160.32 -5 161 C-7.18606465 161.97654135 -9.37357464 162.94886813 -11.56640625 163.91015625 C-13.56761567 164.806364 -15.53877029 165.76938514 -17.5 166.75 C-21.81244839 168.29016014 -25.47613519 168.27697132 -30 168 C-32.21538462 161.6 -32.21538462 161.6 -31.125 158.5625 C-30.75375 158.046875 -30.3825 157.53125 -30 157 C-29.34 157 -28.68 157 -28 157 C-27.79375 156.443125 -27.5875 155.88625 -27.375 155.3125 C-25.42316968 152.02987629 -23.05769006 150.29326754 -20 148 C-19.34 148 -18.68 148 -18 148 C-18 147.34 -18 146.68 -18 146 C-14.30774453 143.84618431 -10.59696943 141.73808901 -6.8125 139.75 C-6.17957031 139.41484375 -5.54664063 139.0796875 -4.89453125 138.734375 C-3 138 -3 138 1 138 C0.236875 137.278125 -0.52625 136.55625 -1.3125 135.8125 C-4.54851721 132.42597036 -6.52248032 129.43255905 -8 125 C-10.10159652 123.87174373 -12.25875083 122.84593881 -14.4375 121.875 C-21.39910282 118.59973331 -26.55183825 114.45771993 -32 109 C-33.00933594 108.09701172 -33.00933594 108.09701172 -34.0390625 107.17578125 C-44.30225505 97.75081757 -54.52690165 82.77993251 -56.34765625 68.8125 C-56.85401029 66.82450794 -56.85401029 66.82450794 -58.87109375 65.8125 C-60.56515811 65.165958 -62.2798013 64.57339957 -64 64 C-63.67 63.34 -63.34 62.68 -63 62 C-60.36 62 -57.72 62 -55 62 C-54.855625 61.278125 -54.71125 60.55625 -54.5625 59.8125 C-54.04166667 57.20833333 -53.52083333 54.60416667 -53 52 C-54.32 51.34 -55.64 50.68 -57 50 C-57 49.34 -57 48.68 -57 48 C-54 47 -54 47 -51.8125 47.9375 C-50.9153125 48.4634375 -50.9153125 48.4634375 -50 49 C-49.40574219 48.2265625 -48.81148437 47.453125 -48.19921875 46.65625 C-41.32535604 37.93664084 -33.76182807 31.45270193 -24 26 C-23.34 26 -22.68 26 -22 26 C-22 25.34 -22 24.68 -22 24 C-21.34 24 -20.68 24 -20 24 C-19.88140625 23.43152344 -19.7628125 22.86304687 -19.640625 22.27734375 C-17.82964092 15.8395162 -13.97158511 10.37972974 -9 6 C-8.40574219 5.46117188 -7.81148437 4.92234375 -7.19921875 4.3671875 C-2.29375 0 -2.29375 0 0 0 Z M161 128 C158.89616695 131.39849955 157.86967549 133.16918124 158.5 137.1875 C160.37468604 140.70253633 161.24323096 141.61996239 165 143 C170.47464859 143.44455793 175.63910964 143.20425798 181 142 C181.31658501 137.96354118 181.4210379 135.67666805 179.25 132.1875 C176.20055084 129.22275776 174.27589125 128.08263544 169.984375 127.8046875 C168.38335937 127.83949219 168.38335937 127.83949219 166.75 127.875 C165.13351562 127.90207031 165.13351562 127.90207031 163.484375 127.9296875 C162.25460937 127.96449219 162.25460937 127.96449219 161 128 Z " fill="#A1BFB0" transform="translate(166,63)"/>
<path d="M0 0 C2.59922402 3.32700674 2.7012391 6.21701062 2.76782227 10.29760742 C2.7977401 11.91894844 2.7977401 11.91894844 2.82826233 13.57304382 C2.84497482 14.73874405 2.86168732 15.90444427 2.87890625 17.10546875 C2.89968735 18.29981033 2.92046844 19.49415192 2.94187927 20.72468567 C3.00734276 24.54556443 3.0662451 28.36651276 3.125 32.1875 C3.16818824 34.77539786 3.21180263 37.36328865 3.25585938 39.95117188 C3.36302092 46.30070739 3.4647934 52.65031234 3.5625 59 C4.36131592 58.17725586 5.16013184 57.35451172 5.9831543 56.50683594 C7.05489364 55.41573842 8.12693103 54.32493361 9.19921875 53.234375 C9.72286011 52.69345215 10.24650146 52.1525293 10.78601074 51.59521484 C16.38864016 45.92133812 22.33877353 41.85906301 30.25 40.25 C37.05681086 41.79116472 41.17930071 46.0920745 45 51.75 C47.95638444 56.48665954 49.21231253 59.24451762 48.5625 65 C44.66692356 73.34766379 35.50703748 79.29216098 28.5625 85 C34.96207678 90.9292017 41.43924776 96.63530235 48.25 102.08984375 C53.94244649 106.79188148 53.94244649 106.79188148 54.5625 111.0625 C55.01086044 116.92934402 52.89668462 121.27137836 49.5625 126 C45.56018551 130.20854062 41.97951472 133.64843422 36.125 134.5 C27.67082573 134.34712162 20.94152168 127.59218592 15.3125 121.9375 C14.50554688 121.09316406 13.69859375 120.24882812 12.8671875 119.37890625 C9.93372582 116.35097716 6.81052257 113.68314908 3.5625 111 C3.53671875 111.86882812 3.5109375 112.73765625 3.484375 113.6328125 C2.89191176 125.67058824 2.89191176 125.67058824 -1.4375 130 C-7.88179934 134.29619956 -15.95125245 133.8237295 -23.4375 133 C-27.54634969 131.28079599 -30.18887023 129.90551487 -32.4375 126 C-33.36603507 123.00123709 -33.56690586 120.2865908 -33.57794189 117.1555481 C-33.58365204 116.18267853 -33.58936218 115.20980896 -33.59524536 114.2074585 C-33.59636322 113.1465802 -33.59748108 112.0857019 -33.59863281 110.99267578 C-33.60359772 109.87031525 -33.60856262 108.74795471 -33.61367798 107.59158325 C-33.62829143 103.87615345 -33.6350998 100.16076633 -33.640625 96.4453125 C-33.64637652 93.86465453 -33.65213425 91.28399657 -33.65789795 88.70333862 C-33.66706239 83.98296609 -33.67336405 79.26261062 -33.6763947 74.54223073 C-33.68087553 67.60212297 -33.69842847 60.66221215 -33.7273953 53.72216427 C-33.75164093 47.7036371 -33.75934014 41.68520292 -33.76107025 35.66662216 C-33.76409854 33.10935264 -33.77213293 30.55208399 -33.78525543 27.99484634 C-33.80229973 24.41844987 -33.80043946 20.84253383 -33.79394531 17.26611328 C-33.8031601 16.20928345 -33.81237488 15.15245361 -33.8218689 14.06359863 C-33.78336497 7.2983961 -33.10202584 2.66452584 -28.125 -2.3125 C-19.84962937 -7.50866296 -7.43010446 -6.09649597 0 0 Z " fill="#6A8176" transform="translate(644.4375,152)"/>
<path d="M0 0 C10.10712247 7.61373543 17.69654789 17.35821953 20 30 C22.25402958 46.08126987 19.57026584 59.46009736 10.078125 72.67578125 C1.77738941 82.55365661 -10.14136274 89.35014839 -23 91 C-36.96545576 92.11895793 -49.60573549 88.459934 -60.6953125 79.92578125 C-70.12063794 71.86501785 -76.31054373 62.18514284 -79 50 C-79.97707231 30.87193054 -79.97707231 30.87193054 -76 22 C-75.67128906 21.25878906 -75.34257812 20.51757812 -75.00390625 19.75390625 C-68.92614095 7.61940597 -58.51041611 -1.97497976 -45.6875 -6.375 C-29.78598327 -11.25797576 -13.92260269 -9.45412991 0 0 Z M-40 32 C-43.251842 37.45470271 -43.44773642 41.01602279 -42 47 C-39.76502877 50.54512678 -37.8318217 52.40282386 -34 54 C-29.34429655 54.72798272 -25.85628313 54.42814156 -21.625 52.3125 C-18.43999961 49.50666632 -16.35010318 47.39237172 -15.71875 43.078125 C-15.45243177 37.17473767 -17.14319769 34.08186926 -21.0625 29.6875 C-27.46693379 26.00835719 -34.6514356 26.91234118 -40 32 Z " fill="#6A8176" transform="translate(465,196)"/>
<path d="M0 0 C0.98525162 -0.01260864 1.97050323 -0.02521729 2.98561096 -0.03820801 C4.57622597 -0.02606262 4.57622597 -0.02606262 6.19897461 -0.01367188 C7.2992247 -0.01749878 8.39947479 -0.02132568 9.5330658 -0.02526855 C11.86401279 -0.02799094 14.19499016 -0.02060707 16.52587891 -0.00390625 C20.06410526 0.01735452 23.60026761 -0.00362405 27.13842773 -0.02929688 C29.40861446 -0.02665086 31.67879991 -0.02152025 33.94897461 -0.01367188 C34.995215 -0.0217688 36.04145538 -0.02986572 37.11940002 -0.03820801 C50.08429699 0.12407437 60.25827009 5.32306471 70.03881836 13.51757812 C72.57065095 16.32418325 74.3482194 19.14792014 76.03881836 22.51757812 C76.44745117 23.22914063 76.85608398 23.94070312 77.27709961 24.67382812 C81.63219772 33.4139563 81.32925407 44.41338222 79.34350586 53.80664062 C75.13886425 66.3498992 67.39363843 74.348401 55.78881836 80.39257812 C50.01683741 83.24084324 44.96309574 83.64078242 38.55053711 83.61523438 C37.84733841 83.61381943 37.14413971 83.61240448 36.41963196 83.61094666 C34.18848292 83.60537921 31.95743672 83.59283287 29.72631836 83.58007812 C28.20743961 83.57505891 26.68855927 83.57049674 25.16967773 83.56640625 C21.45935824 83.55542048 17.74909835 83.53817847 14.03881836 83.51757812 C14.04929199 84.37512695 14.05976563 85.23267578 14.07055664 86.11621094 C14.10470132 89.30679326 14.12974795 92.49728224 14.14868164 95.68798828 C14.15872089 97.06725128 14.17235513 98.44649309 14.18969727 99.82568359 C14.2140359 101.81142952 14.22425091 103.79733262 14.23413086 105.78320312 C14.24460449 106.97719727 14.25507813 108.17119141 14.26586914 109.40136719 C14.0475185 112.39817109 13.70916103 114.05347455 12.03881836 116.51757812 C9.11421407 117.97988027 6.48229012 117.72666539 3.22631836 117.76757812 C2.00299805 117.79335938 0.77967773 117.81914062 -0.48071289 117.84570312 C-4.4575937 117.47077833 -6.01258903 117.2198104 -8.96118164 114.51757812 C-9.74265611 111.07630766 -9.63291842 107.65807225 -9.59228516 104.14282227 C-9.59944046 103.0759166 -9.60659576 102.00901093 -9.6139679 100.90977478 C-9.63091306 97.37366256 -9.6114157 93.83880781 -9.59008789 90.30273438 C-9.59091611 87.85037633 -9.59337369 85.39801834 -9.59739685 82.94566345 C-9.60025894 77.80157801 -9.5855139 72.65792699 -9.55810547 67.51391602 C-9.52404069 60.91480512 -9.53003148 54.31647226 -9.54876804 47.71732426 C-9.55932959 42.65158081 -9.55040744 37.58601885 -9.53538322 32.52029228 C-9.53019358 30.08698503 -9.53069265 27.65365888 -9.53692818 25.22035408 C-9.5423692 21.82039684 -9.52203849 18.42155836 -9.49462891 15.02172852 C-9.50115479 14.01224152 -9.50768066 13.00275452 -9.5144043 11.962677 C-9.42180952 5.21901434 -9.42180952 5.21901434 -7.23791504 1.89341736 C-4.59003817 0.29329462 -3.08176355 0.01135174 0 0 Z M30.03881836 30.51757812 C27.9349853 33.91607767 26.90849385 35.68675937 27.53881836 39.70507812 C29.4135044 43.22011445 30.28204932 44.13754052 34.03881836 45.51757812 C39.51346695 45.96213606 44.677928 45.7218361 50.03881836 44.51757812 C50.35540336 40.48111931 50.45985626 38.19424617 48.28881836 34.70507812 C45.2393692 31.74033589 43.31470961 30.60021357 39.02319336 30.32226562 C37.42217773 30.35707031 37.42217773 30.35707031 35.78881836 30.39257812 C34.17233398 30.41964844 34.17233398 30.41964844 32.52319336 30.44726562 C31.29342773 30.48207031 31.29342773 30.48207031 30.03881836 30.51757812 Z " fill="#698075" transform="translate(296.961181640625,160.482421875)"/>
<path d="M0 0 C3.65457295 4.40698502 3.30112459 8.6733774 3.37109375 14.140625 C3.4040441 15.8763069 3.43725554 17.61198386 3.47070312 19.34765625 C3.51800214 22.07727529 3.56241885 24.80687602 3.60180664 27.53662109 C3.64174875 30.17567016 3.69324912 32.81430703 3.74609375 35.453125 C3.7545079 36.26066223 3.76292206 37.06819946 3.77159119 37.90020752 C3.87725962 42.79311942 4.37505571 46.96793261 6.125 51.5625 C9.70397251 53.94848167 11.84090055 54.34829503 16.125 54.5625 C19.93865182 53.73763043 19.93865182 53.73763043 23.125 51.5625 C26.14727581 46.07795444 26.54251164 41.5205587 26.49609375 35.33984375 C26.51346744 33.56705528 26.53105191 31.79426886 26.54882812 30.02148438 C26.55890978 27.25443837 26.56249233 24.48752263 26.56079102 21.72045898 C26.56436814 19.03069964 26.5917235 16.34192683 26.62109375 13.65234375 C26.61291122 12.83031967 26.6047287 12.00829559 26.59629822 11.16136169 C26.66501206 5.83584959 27.59242995 2.79162736 31.125 -1.4375 C37.74132174 -5.46042603 46.00484633 -5.153785 53.375 -3.8125 C58.11580398 -2.07420521 59.37608214 -0.60252706 62.125 3.5625 C63.40509334 7.19086202 63.2656056 10.80495057 63.28613281 14.62255859 C63.29358017 15.67699409 63.29358017 15.67699409 63.30117798 16.75273132 C63.31575146 19.07214343 63.32259316 21.39148718 63.328125 23.7109375 C63.33387996 25.32752483 63.33963765 26.94411215 63.34539795 28.56069946 C63.35589392 31.94834714 63.36174591 35.33597117 63.36523438 38.72363281 C63.37071935 43.05686147 63.3947532 47.38977596 63.42320633 51.72290611 C63.44186126 55.06184798 63.4470398 58.40071455 63.44857025 61.73970413 C63.45159034 63.33684636 63.4595971 64.93398746 63.47275543 66.53107834 C63.4898779 68.76884412 63.48792112 71.005847 63.48144531 73.24365234 C63.48691376 75.15082535 63.48691376 75.15082535 63.49249268 77.0965271 C62.95407131 82.17459798 61.36221305 85.41807793 57.625 88.875 C51.65868495 92.90226266 43.73133138 92.24954604 36.8203125 91.21875 C33.5568826 90.37838179 31.10146028 89.35279686 29.125 86.5625 C29.125 85.9025 29.125 85.2425 29.125 84.5625 C28.38056641 85.06910156 28.38056641 85.06910156 27.62109375 85.5859375 C20.09389981 90.52789025 13.1307028 92.56313364 4.125 91.5625 C-8.73601385 88.84190092 -17.00779628 82.97894785 -24.875 72.5625 C-33.03392664 59.68999657 -33.3606996 45.9507296 -33.26611328 31.18798828 C-33.2499224 28.17305025 -33.26608389 25.15943051 -33.28515625 22.14453125 C-33.28317558 20.21353873 -33.27933556 18.28254703 -33.2734375 16.3515625 C-33.27951019 15.45772858 -33.28558289 14.56389465 -33.2918396 13.64297485 C-33.22051532 7.29435415 -32.21116193 2.89866193 -27.5625 -1.75 C-19.84588821 -6.59531438 -6.87505041 -5.82884709 0 0 Z " fill="#6A8075" transform="translate(734.875,193.4375)"/>
<path d="M0 0 C2.91121468 1.96658904 5.47682743 4.05586954 7.75 6.75 C8.430625 7.471875 9.11125 8.19375 9.8125 8.9375 C12.37628186 12.65911883 13.53356686 16.42929269 14.75 20.75 C15.1521875 22.0803125 15.1521875 22.0803125 15.5625 23.4375 C15.81557084 26.558707 14.8890903 28.8687716 13.75 31.75 C13.09 31.75 12.43 31.75 11.75 31.75 C11.42 32.74 11.09 33.73 10.75 34.75 C7.6556978 36.06507844 4.28407367 35.91465286 0.96191406 36.04052734 C-9.04039722 36.42251407 -18.63868471 37.20530418 -27.25 42.75 C-26.14205078 43.07871094 -26.14205078 43.07871094 -25.01171875 43.4140625 C-9.01301319 48.41492853 2.76882396 55.69796773 10.75 70.75 C15.83684904 82.65658073 16.0339491 94.83774165 12.30859375 107.15625 C11.72231112 109.87856937 11.85779334 111.16042458 12.75 113.75 C14.09258081 119.12032324 13.70765202 122.19268397 11.04296875 126.89453125 C6.70899302 133.11398282 0.35183768 135.86569004 -6.87353516 137.25415039 C-9.80743324 137.68212736 -12.74123147 138.04283418 -15.6875 138.375 C-16.73921387 138.50052246 -17.79092773 138.62604492 -18.87451172 138.75537109 C-26.50551135 139.63475406 -34.11566766 140.2174232 -41.7890625 140.5390625 C-45.00972972 140.73535599 -48.08133587 141.15526612 -51.25 141.75 C-51.19779297 143.668125 -51.19779297 143.668125 -51.14453125 145.625 C-51.11637213 147.33332009 -51.08907426 149.04165452 -51.0625 150.75 C-51.03736328 151.58917969 -51.01222656 152.42835938 -50.98632812 153.29296875 C-50.91811107 159.15963542 -51.7673585 163.41232077 -54.25 168.75 C-59.16557856 173.66557856 -63.37242169 173.91286996 -70.125 174 C-71.91550781 174.03867187 -71.91550781 174.03867187 -73.7421875 174.078125 C-78.82162046 173.60298873 -82.06453056 171.99954887 -85.5625 168.3125 C-87.99206957 164.62315362 -88.37391443 161.57049761 -88.39044189 157.20925903 C-88.39615204 156.3037027 -88.40186218 155.39814636 -88.40774536 154.46514893 C-88.40886322 153.47907654 -88.40998108 152.49300415 -88.41113281 151.47705078 C-88.41609772 150.43271881 -88.42106262 149.38838684 -88.42617798 148.31240845 C-88.44078642 144.85670311 -88.44759897 141.40104365 -88.453125 137.9453125 C-88.45887695 135.54401651 -88.46463468 133.14272053 -88.47039795 130.74142456 C-88.48090378 125.70603217 -88.48674938 120.67065572 -88.49023438 115.63525391 C-88.49572222 109.18337495 -88.51975844 102.7317067 -88.54820633 96.27989388 C-88.5668288 91.31964501 -88.57203808 86.35944698 -88.57357025 81.39916611 C-88.57659751 79.02052532 -88.58462846 76.64188545 -88.59775543 74.26327896 C-88.61480945 70.9359354 -88.61293715 67.60910781 -88.60644531 64.28173828 C-88.6156601 63.29971436 -88.62487488 62.31769043 -88.6343689 61.3059082 C-88.6020962 56.02561642 -88.22016938 52.31200003 -85.25 47.75 C-77.74619057 40.71803254 -63.9244943 42.17648583 -54.25 41.75 C-52.63821763 37.2047737 -51.1891833 32.73571242 -50.25 28 C-49.5017065 24.43937009 -48.51499767 21.67562199 -46.25 18.75 C-45.59 18.75 -44.93 18.75 -44.25 18.75 C-44.064375 17.2959375 -44.064375 17.2959375 -43.875 15.8125 C-41.89863304 8.99887123 -35.35474256 4.8055208 -29.70703125 1.06640625 C-20.95715181 -3.60637354 -8.96832704 -4.76534869 0 0 Z M-81.25 53.75 C-81.85143857 57.24845221 -81.80634818 60.71161196 -81.78344727 64.25415039 C-81.79206284 65.32280838 -81.80067841 66.39146637 -81.80955505 67.49250793 C-81.83227367 71.02780312 -81.82546585 74.56230957 -81.81640625 78.09765625 C-81.82163859 80.55098202 -81.82791362 83.00430578 -81.83518982 85.45762634 C-81.84560451 90.59985825 -81.84101601 95.7418136 -81.82641602 100.8840332 C-81.80921295 107.48441002 -81.83273786 114.0839176 -81.86790562 120.68419743 C-81.88982817 125.7498912 -81.88845078 130.81537526 -81.8801403 135.88110161 C-81.87931824 138.31525057 -81.88623004 140.74941454 -81.90091133 143.18351936 C-81.91826467 146.58131077 -81.90389069 149.97751755 -81.88110352 153.37524414 C-81.89279572 154.38675537 -81.90448792 155.3982666 -81.91653442 156.44042969 C-81.88179985 158.97649608 -81.8117745 161.27709963 -81.25 163.75 C-77.50435019 167.17590732 -74.08513039 167.13095191 -69.125 167.0625 C-67.90554688 167.05863281 -66.68609375 167.05476563 -65.4296875 167.05078125 C-62.0946572 166.98868285 -62.0946572 166.98868285 -59.25 164.75 C-58.11082782 161.33248347 -58.13661519 158.71512063 -58.15234375 155.11328125 C-58.15717773 153.16518555 -58.15717773 153.16518555 -58.16210938 151.17773438 C-58.17046469 149.80598892 -58.17892963 148.43424413 -58.1875 147.0625 C-58.19251665 145.67903805 -58.19707927 144.29557437 -58.20117188 142.91210938 C-58.21297471 139.52469605 -58.22943981 136.13736967 -58.25 132.75 C-56.86663452 132.77356567 -56.86663452 132.77356567 -55.45532227 132.79760742 C-51.99432619 132.84910193 -48.5337443 132.8865261 -45.07250977 132.91479492 C-43.58188402 132.92977042 -42.09130149 132.95015819 -40.60083008 132.97631836 C-28.6149548 133.22495989 -28.6149548 133.22495989 -17.25 129.75 C-16.17492187 129.24082031 -15.09984375 128.73164063 -13.9921875 128.20703125 C-2.92678176 121.86025221 3.75583191 114.31860411 7.29199219 101.83691406 C9.69667908 90.87995057 8.30693728 79.41877291 2.75 69.75 C2.36199219 69.02683594 1.97398437 68.30367187 1.57421875 67.55859375 C-1.39096627 62.86754253 -5.47725376 59.94773155 -10.0625 56.9375 C-10.630896 56.56407471 -11.19929199 56.19064941 -11.78491211 55.8059082 C-20.26988557 50.54534408 -28.25955464 49.28894105 -38.14453125 49.31640625 C-39.80919685 49.30854347 -39.80919685 49.30854347 -41.50749207 49.30052185 C-43.83791266 49.29413225 -46.16836565 49.29539866 -48.4987793 49.30395508 C-52.06942419 49.3125166 -55.63849505 49.28357641 -59.20898438 49.25195312 C-61.47916619 49.25034222 -63.74935083 49.25091652 -66.01953125 49.25390625 C-67.08621536 49.24267227 -68.15289948 49.23143829 -69.25190735 49.21986389 C-70.73946785 49.23393532 -70.73946785 49.23393532 -72.25708008 49.24829102 C-73.12706131 49.24845718 -73.99704254 49.24862335 -74.89338684 49.24879456 C-78.31880883 49.9773147 -79.31338654 50.79644387 -81.25 53.75 Z " fill="#F4F6F6" transform="translate(369.25,111.25)"/>
<path d="M0 0 C3.94808376 4.04208576 4.71526898 6.85294392 5 12.375 C4.84328174 19.37508231 2.55243508 25.11758656 -1.625 30.6875 C-5.09308696 33.20974506 -8.08789825 34.40005065 -12.375 34.6875 C-14.729248 34.098938 -17.06470915 33.43009349 -19.375 32.6875 C-23.66144334 32.25159051 -27.74634688 32.07486976 -31.375 34.6875 C-32.52081132 36.97912263 -32.51082384 38.29439915 -32.53271484 40.8425293 C-32.54810806 42.12978157 -32.54810806 42.12978157 -32.56381226 43.44303894 C-32.57111359 44.37320328 -32.57841492 45.30336761 -32.5859375 46.26171875 C-32.61401801 48.22852378 -32.64268255 50.19532054 -32.671875 52.16210938 C-32.71305258 55.26488917 -32.74993626 58.3675166 -32.77636719 61.47045898 C-32.80408021 64.46370463 -32.8499654 67.45624669 -32.8984375 70.44921875 C-32.90169037 71.36926193 -32.90494324 72.28930511 -32.90829468 73.23722839 C-33.01375361 78.80049175 -33.71548489 82.76807571 -36.375 87.6875 C-42.20467861 93.22569468 -47.91584425 93.11828249 -55.62109375 92.9609375 C-60.1449459 92.63141653 -64.12393797 92.03073132 -67.375 88.6875 C-69.88849689 83.66861412 -70.75239161 80.00072064 -70.76318359 74.30273438 C-70.76844055 73.60094559 -70.77369751 72.8991568 -70.77911377 72.17610168 C-70.79221807 69.87758515 -70.78361035 67.57977245 -70.7734375 65.28125 C-70.775461 63.67134469 -70.77837473 62.06144028 -70.78213501 60.45153809 C-70.78654539 57.08592965 -70.78016901 53.72056092 -70.76611328 50.35498047 C-70.74902201 46.05438911 -70.75887013 41.75435954 -70.77683067 37.45378876 C-70.78770345 34.13193578 -70.78420621 30.81021463 -70.7764473 27.48835754 C-70.77445493 25.90322299 -70.77687049 24.31807622 -70.78388596 22.73295593 C-70.79155843 20.51240619 -70.77981679 18.29274936 -70.76318359 16.07226562 C-70.76079681 14.81208618 -70.75841003 13.55190674 -70.75595093 12.25354004 C-70.17316294 6.79812534 -68.84957413 2.90562645 -64.5 -0.6875 C-58.33411951 -3.89375785 -50.85355775 -4.49147076 -44.08984375 -2.7109375 C-41.39900307 -1.71507497 -38.86976143 -0.63459979 -36.4609375 0.93359375 C-34.31814135 1.9574026 -34.31814135 1.9574026 -31.9375 0.82421875 C-31.091875 0.34597656 -30.24625 -0.13226563 -29.375 -0.625 C-20.85235882 -5.36701834 -8.45357633 -5.68956199 0 0 Z " fill="#6A8076" transform="translate(560.375,192.3125)"/>
<path d="M0 0 C3.98308586 4.39512923 4.13580265 8.32261113 4.19287109 14.09838867 C4.20513733 15.17704697 4.20513733 15.17704697 4.21765137 16.27749634 C4.24246423 18.65764544 4.25901313 21.03773494 4.2734375 23.41796875 C4.27876118 24.2326745 4.28408485 25.04738026 4.28956985 25.88677406 C4.31628698 30.20128055 4.33566416 34.51575829 4.35009766 38.83032227 C4.36342186 42.39308431 4.39124771 45.95527157 4.43212891 49.51782227 C4.48156968 53.82668011 4.50623282 58.13501774 4.51332474 62.44414711 C4.52001827 64.08154289 4.53519078 65.71892792 4.55921555 67.35616112 C4.77265279 82.78494824 4.77265279 82.78494824 0.35305786 88.70596313 C-3.7378384 92.61841265 -9.16235387 92.29622669 -14.5 92.3125 C-15.7684375 92.32925781 -17.036875 92.34601563 -18.34375 92.36328125 C-22.37219118 91.96301947 -24.63814163 91.24281282 -28 89 C-31.65786526 84.49853503 -32.58100226 80.99372787 -32.50170898 75.32983398 C-32.50711197 74.58596436 -32.51251495 73.84209473 -32.51808167 73.07568359 C-32.53052583 70.63207449 -32.51410946 68.18965349 -32.49609375 65.74609375 C-32.49624882 64.04028766 -32.49773918 62.33448122 -32.50050354 60.62867737 C-32.50188554 57.06031649 -32.48936182 53.49235852 -32.46655273 49.92407227 C-32.43814695 45.35532333 -32.44091386 40.78724241 -32.45364285 36.21844387 C-32.46060428 32.69849462 -32.45280582 29.17869921 -32.44038582 25.65876961 C-32.43587735 23.97430067 -32.43552923 22.28981518 -32.43945122 20.60534477 C-32.44236861 18.25014362 -32.42583304 15.89585693 -32.40405273 13.54077148 C-32.40855438 12.84816727 -32.41305603 12.15556305 -32.41769409 11.44197083 C-32.35151325 7.12490709 -31.61430503 4.44419238 -29 1 C-20.92801584 -5.60435068 -8.71599703 -5.73980293 0 0 Z " fill="#6B8277" transform="translate(600,193)"/>
<path d="M0 0 C2.59922402 3.32700674 2.7012391 6.21701062 2.76782227 10.29760742 C2.7977401 11.91894844 2.7977401 11.91894844 2.82826233 13.57304382 C2.84497482 14.73874405 2.86168732 15.90444427 2.87890625 17.10546875 C2.89968735 18.29981033 2.92046844 19.49415192 2.94187927 20.72468567 C3.00734276 24.54556443 3.0662451 28.36651276 3.125 32.1875 C3.16818824 34.77539786 3.21180263 37.36328865 3.25585938 39.95117188 C3.36302092 46.30070739 3.4647934 52.65031234 3.5625 59 C4.36131592 58.17725586 5.16013184 57.35451172 5.9831543 56.50683594 C7.05489364 55.41573842 8.12693103 54.32493361 9.19921875 53.234375 C9.72286011 52.69345215 10.24650146 52.1525293 10.78601074 51.59521484 C16.38864016 45.92133812 22.33877353 41.85906301 30.25 40.25 C37.05681086 41.79116472 41.17930071 46.0920745 45 51.75 C47.95638444 56.48665954 49.21231253 59.24451762 48.5625 65 C44.66692356 73.34766379 35.50703748 79.29216098 28.5625 85 C34.96207678 90.9292017 41.43924776 96.63530235 48.25 102.08984375 C53.94244649 106.79188148 53.94244649 106.79188148 54.5625 111.0625 C55.01086044 116.92934402 52.89668462 121.27137836 49.5625 126 C45.56018551 130.20854062 41.97951472 133.64843422 36.125 134.5 C27.67082573 134.34712162 20.94152168 127.59218592 15.3125 121.9375 C14.50554688 121.09316406 13.69859375 120.24882812 12.8671875 119.37890625 C9.93372582 116.35097716 6.81052257 113.68314908 3.5625 111 C3.53671875 111.86882812 3.5109375 112.73765625 3.484375 113.6328125 C2.89191176 125.67058824 2.89191176 125.67058824 -1.4375 130 C-7.88179934 134.29619956 -15.95125245 133.8237295 -23.4375 133 C-27.54634969 131.28079599 -30.18887023 129.90551487 -32.4375 126 C-33.36603507 123.00123709 -33.56690586 120.2865908 -33.57794189 117.1555481 C-33.58365204 116.18267853 -33.58936218 115.20980896 -33.59524536 114.2074585 C-33.59636322 113.1465802 -33.59748108 112.0857019 -33.59863281 110.99267578 C-33.60359772 109.87031525 -33.60856262 108.74795471 -33.61367798 107.59158325 C-33.62829143 103.87615345 -33.6350998 100.16076633 -33.640625 96.4453125 C-33.64637652 93.86465453 -33.65213425 91.28399657 -33.65789795 88.70333862 C-33.66706239 83.98296609 -33.67336405 79.26261062 -33.6763947 74.54223073 C-33.68087553 67.60212297 -33.69842847 60.66221215 -33.7273953 53.72216427 C-33.75164093 47.7036371 -33.75934014 41.68520292 -33.76107025 35.66662216 C-33.76409854 33.10935264 -33.77213293 30.55208399 -33.78525543 27.99484634 C-33.80229973 24.41844987 -33.80043946 20.84253383 -33.79394531 17.26611328 C-33.8031601 16.20928345 -33.81237488 15.15245361 -33.8218689 14.06359863 C-33.78336497 7.2983961 -33.10202584 2.66452584 -28.125 -2.3125 C-19.84962937 -7.50866296 -7.43010446 -6.09649597 0 0 Z M-25.12567234 3.22625065 C-26.84189271 5.54678776 -26.81708299 6.94046066 -26.82518005 9.81358337 C-26.83508469 10.80479691 -26.84498932 11.79601044 -26.85519409 12.81726074 C-26.85069244 13.90357788 -26.8461908 14.98989502 -26.84155273 16.10913086 C-26.84841599 17.25406509 -26.85527924 18.39899933 -26.86235046 19.57862854 C-26.88069479 23.37415874 -26.87676992 27.16927861 -26.87109375 30.96484375 C-26.8756519 33.59656408 -26.88095636 36.22828322 -26.88697815 38.86000061 C-26.89701389 44.38058414 -26.89370179 49.90105058 -26.88354492 55.42163086 C-26.87206461 61.80253467 -26.88613576 68.18301814 -26.9129414 74.56386656 C-26.93776411 80.70257111 -26.94027745 86.84108163 -26.93382454 92.97982979 C-26.93367086 95.59177919 -26.93975343 98.20373651 -26.95211601 100.81565666 C-26.96695217 104.46458296 -26.95640194 108.11257796 -26.93920898 111.76147461 C-26.94887695 112.84576752 -26.95854492 113.93006042 -26.96850586 115.04721069 C-26.99964318 120.70461416 -26.99964318 120.70461416 -24.61097717 125.66700745 C-21.51469428 127.56595633 -19.1101564 127.56635289 -15.5 127.5625 C-13.69208984 127.59537109 -13.69208984 127.59537109 -11.84765625 127.62890625 C-8.38056367 127.19545325 -8.38056367 127.19545325 -5.546875 125.265625 C-2.25986935 120.17685329 -2.65492592 115.12280782 -2.625 109.1875 C-2.59986328 108.01767578 -2.57472656 106.84785156 -2.54882812 105.64257812 C-2.49002818 102.7613807 -2.45369468 99.88170017 -2.4375 97 C4.82399884 103.0421767 11.85293543 109.15659995 18.4375 115.9375 C26.09772434 123.76653056 26.09772434 123.76653056 36.1875 127.75 C41.05580616 126.66815419 42.81181818 123.98059393 45.5625 120 C46.201875 119.13375 46.84125 118.2675 47.5 117.375 C48.85921804 114.33674792 48.57562465 113.14725296 47.5625 110 C45.63350562 107.72905505 45.63350562 107.72905505 43.125 105.6875 C42.22007812 104.91019531 41.31515625 104.13289063 40.3828125 103.33203125 C36.15071264 99.83263566 31.89176656 96.37860613 27.5625 93 C26.69496094 92.32195312 25.82742188 91.64390625 24.93359375 90.9453125 C22.81308008 89.2927056 20.68959049 87.64412791 18.5625 86 C21.32771065 82.31735964 24.20544837 79.47972372 27.8125 76.625 C29.25496094 75.46097656 29.25496094 75.46097656 30.7265625 74.2734375 C32.49025654 72.85956707 34.25558616 71.44773134 36.0234375 70.0390625 C37.09464844 69.15347656 37.09464844 69.15347656 38.1875 68.25 C39.13496094 67.48429687 39.13496094 67.48429687 40.1015625 66.703125 C42.05424215 64.42673909 42.45964812 62.99612005 42.5625 60 C41.31696145 57.34131721 41.31696145 57.34131721 39.375 54.875 C38.76269531 54.02679688 38.15039062 53.17859375 37.51953125 52.3046875 C35.61589348 50.06287855 34.14452068 48.41014312 31.5625 47 C22.04326706 47.54223479 14.41910202 56.84767944 8.20507812 63.29199219 C7.68880859 63.82727539 7.17253906 64.36255859 6.640625 64.9140625 C6.19106445 65.3879541 5.74150391 65.8618457 5.27832031 66.35009766 C2.82192265 68.71212603 0.19530137 70.83652409 -2.4375 73 C-2.43892502 72.16950134 -2.44035004 71.33900269 -2.44181824 70.4833374 C-2.45965026 62.65531369 -2.50126913 54.82785535 -2.56959057 47.000103 C-2.60387705 42.9757416 -2.62897302 38.95176046 -2.63305664 34.92724609 C-2.63733622 31.04302329 -2.66576882 27.15965851 -2.71093178 23.27570343 C-2.72391799 21.79420215 -2.72821042 20.31259824 -2.72365379 18.83104706 C-2.71875498 16.75458737 -2.74479895 14.68064256 -2.77807617 12.60449219 C-2.78473801 11.42312683 -2.79139984 10.24176147 -2.79826355 9.02459717 C-3.19301321 5.8283896 -3.19301321 5.8283896 -5.74971008 3.6182251 C-9.32892463 1.46330414 -11.91061986 1.50108165 -16.0625 1.5625 C-17.37476563 1.56378906 -18.68703125 1.56507813 -20.0390625 1.56640625 C-23.32047598 1.70843785 -23.32047598 1.70843785 -25.12567234 3.22625065 Z " fill="#F6F7F8" transform="translate(644.4375,152)"/>
<path d="M0 0 C3.65457295 4.40698502 3.30112459 8.6733774 3.37109375 14.140625 C3.4040441 15.8763069 3.43725554 17.61198386 3.47070312 19.34765625 C3.51800214 22.07727529 3.56241885 24.80687602 3.60180664 27.53662109 C3.64174875 30.17567016 3.69324912 32.81430703 3.74609375 35.453125 C3.7545079 36.26066223 3.76292206 37.06819946 3.77159119 37.90020752 C3.87725962 42.79311942 4.37505571 46.96793261 6.125 51.5625 C9.70397251 53.94848167 11.84090055 54.34829503 16.125 54.5625 C19.93865182 53.73763043 19.93865182 53.73763043 23.125 51.5625 C26.14727581 46.07795444 26.54251164 41.5205587 26.49609375 35.33984375 C26.51346744 33.56705528 26.53105191 31.79426886 26.54882812 30.02148438 C26.55890978 27.25443837 26.56249233 24.48752263 26.56079102 21.72045898 C26.56436814 19.03069964 26.5917235 16.34192683 26.62109375 13.65234375 C26.61291122 12.83031967 26.6047287 12.00829559 26.59629822 11.16136169 C26.66501206 5.83584959 27.59242995 2.79162736 31.125 -1.4375 C37.74132174 -5.46042603 46.00484633 -5.153785 53.375 -3.8125 C58.11580398 -2.07420521 59.37608214 -0.60252706 62.125 3.5625 C63.40509334 7.19086202 63.2656056 10.80495057 63.28613281 14.62255859 C63.29358017 15.67699409 63.29358017 15.67699409 63.30117798 16.75273132 C63.31575146 19.07214343 63.32259316 21.39148718 63.328125 23.7109375 C63.33387996 25.32752483 63.33963765 26.94411215 63.34539795 28.56069946 C63.35589392 31.94834714 63.36174591 35.33597117 63.36523438 38.72363281 C63.37071935 43.05686147 63.3947532 47.38977596 63.42320633 51.72290611 C63.44186126 55.06184798 63.4470398 58.40071455 63.44857025 61.73970413 C63.45159034 63.33684636 63.4595971 64.93398746 63.47275543 66.53107834 C63.4898779 68.76884412 63.48792112 71.005847 63.48144531 73.24365234 C63.48691376 75.15082535 63.48691376 75.15082535 63.49249268 77.0965271 C62.95407131 82.17459798 61.36221305 85.41807793 57.625 88.875 C51.65868495 92.90226266 43.73133138 92.24954604 36.8203125 91.21875 C33.5568826 90.37838179 31.10146028 89.35279686 29.125 86.5625 C29.125 85.9025 29.125 85.2425 29.125 84.5625 C28.38056641 85.06910156 28.38056641 85.06910156 27.62109375 85.5859375 C20.09389981 90.52789025 13.1307028 92.56313364 4.125 91.5625 C-8.73601385 88.84190092 -17.00779628 82.97894785 -24.875 72.5625 C-33.03392664 59.68999657 -33.3606996 45.9507296 -33.26611328 31.18798828 C-33.2499224 28.17305025 -33.26608389 25.15943051 -33.28515625 22.14453125 C-33.28317558 20.21353873 -33.27933556 18.28254703 -33.2734375 16.3515625 C-33.27951019 15.45772858 -33.28558289 14.56389465 -33.2918396 13.64297485 C-33.22051532 7.29435415 -32.21116193 2.89866193 -27.5625 -1.75 C-19.84588821 -6.59531438 -6.87505041 -5.82884709 0 0 Z M-24.58460999 3.79724121 C-26.23149151 6.05018183 -26.2605958 7.35793464 -26.27905273 10.13476562 C-26.29173691 11.06003052 -26.30442108 11.98529541 -26.31748962 12.93859863 C-26.31455399 13.93854858 -26.31161835 14.93849854 -26.30859375 15.96875 C-26.3138356 17.0038269 -26.31907745 18.03890381 -26.32447815 19.10534668 C-26.33090795 21.30101627 -26.32954902 23.49672027 -26.32104492 25.69238281 C-26.31260237 29.02212678 -26.34117431 32.35011608 -26.37304688 35.6796875 C-26.37466088 37.81770782 -26.37407756 39.95573115 -26.37109375 42.09375 C-26.38232773 43.0775061 -26.39356171 44.06126221 -26.40513611 45.0748291 C-26.28971494 56.76935437 -21.96267811 66.93690205 -14.0625 75.53515625 C-7.19936273 82.05236926 -0.18139195 84.74210161 9.25 85.125 C16.65352571 84.88410437 20.64434306 82.98740271 25.83203125 77.8828125 C29.0248566 74.38701832 31.07160769 70.84391329 33.125 66.5625 C33.17398438 67.69429688 33.22296875 68.82609375 33.2734375 69.9921875 C33.34846514 71.47398339 33.42401297 72.955753 33.5 74.4375 C33.5309375 75.18386719 33.561875 75.93023437 33.59375 76.69921875 C33.68143831 81.09723188 33.68143831 81.09723188 36.125 84.5625 C38.98065359 84.78802341 41.7075351 84.88678763 44.5625 84.875 C45.33916016 84.89111328 46.11582031 84.90722656 46.91601562 84.92382812 C51.07085768 84.99366672 51.07085768 84.99366672 54.84608459 83.49414062 C56.77400139 80.58226515 56.55092342 77.67030189 56.52905273 74.29296875 C56.53934761 73.1876329 56.53934761 73.1876329 56.54985046 72.05996704 C56.5681586 69.62311562 56.56427585 67.18690546 56.55859375 64.75 C56.56315332 63.05753367 56.56845821 61.36506919 56.57447815 59.67260742 C56.58341687 56.12508625 56.58097718 52.57779012 56.57104492 49.03027344 C56.55954819 44.48021198 56.57977314 39.93092577 56.60896206 35.38096619 C56.62729141 31.8859767 56.62703828 28.39117416 56.62132454 24.89614868 C56.62117095 23.21838289 56.62724589 21.54060472 56.63961601 19.86288452 C56.6544651 17.51876905 56.64389603 15.17610085 56.62670898 12.83203125 C56.63637695 12.13687408 56.64604492 11.44171692 56.65600586 10.72549438 C56.60768903 7.58467751 56.50627301 5.96832411 54.31434631 3.63525391 C51.06127614 2.04128784 48.22537024 2.12854367 44.625 2.125 C43.3153125 2.10566406 42.005625 2.08632812 40.65625 2.06640625 C37.18696373 2.29547924 37.18696373 2.29547924 34.93359375 4.01245117 C32.22292576 7.83439058 32.59690491 11.28272838 32.65625 15.859375 C32.64920044 16.76697571 32.64215088 17.67457642 32.6348877 18.60968018 C32.60544242 22.48472783 32.62197337 26.35927172 32.63427734 30.234375 C32.63667062 33.0680092 32.61566636 35.90084076 32.59375 38.734375 C32.60506958 39.59923523 32.61638916 40.46409546 32.62805176 41.35516357 C32.58053588 47.12974875 31.59111989 51.82591373 28.125 56.5625 C23.20350951 60.46429639 17.99912369 61.26558849 11.8125 61.0078125 C7.53638452 60.29927011 4.09635678 58.75110221 1.125 55.5625 C-1.77456386 49.99079785 -2.30409274 45.52819112 -2.28125 39.3046875 C-2.29208618 38.4386087 -2.30292236 37.57252991 -2.31408691 36.6802063 C-2.35969255 33.00186276 -2.37143641 29.32359507 -2.38623047 25.64501953 C-2.40194133 22.94798877 -2.43493285 20.25154222 -2.46875 17.5546875 C-2.46421814 16.31390945 -2.46421814 16.31390945 -2.45959473 15.04806519 C-2.52567765 9.9642214 -3.10195447 6.33554553 -6.875 2.5625 C-9.51429097 2.40898419 -12.10939959 2.33086939 -14.75 2.3125 C-15.48347656 2.291875 -16.21695313 2.27125 -16.97265625 2.25 C-21.02124529 2.13994827 -21.02124529 2.13994827 -24.58460999 3.79724121 Z " fill="#F5F6F6" transform="translate(734.875,193.4375)"/>
<path d="M0 0 C2.91121468 1.96658904 5.47682743 4.05586954 7.75 6.75 C8.430625 7.471875 9.11125 8.19375 9.8125 8.9375 C12.37628186 12.65911883 13.53356686 16.42929269 14.75 20.75 C15.1521875 22.0803125 15.1521875 22.0803125 15.5625 23.4375 C15.81557084 26.558707 14.8890903 28.8687716 13.75 31.75 C13.09 31.75 12.43 31.75 11.75 31.75 C11.42 32.74 11.09 33.73 10.75 34.75 C7.65578377 36.0650419 4.28424444 35.91478303 0.9621582 36.0402832 C-12.72628794 36.29265399 -12.72628794 36.29265399 -24.78881836 41.78881836 C-29.42346146 44.41490907 -33.01349334 44.25929976 -38.2421875 44.140625 C-39.18812775 44.13496521 -40.13406799 44.12930542 -41.1086731 44.12347412 C-44.11464142 44.10117571 -47.11939511 44.05099138 -50.125 44 C-52.16925356 43.97992656 -54.21352589 43.96167727 -56.2578125 43.9453125 C-61.25567265 43.90133228 -66.25263075 43.83234985 -71.25 43.75 C-71.25 43.42 -71.25 43.09 -71.25 42.75 C-62.835 42.255 -62.835 42.255 -54.25 41.75 C-52.65395994 37.17952164 -51.19205399 32.7501875 -50.25 28 C-49.5017065 24.43937009 -48.51499767 21.67562199 -46.25 18.75 C-45.59 18.75 -44.93 18.75 -44.25 18.75 C-44.12625 17.780625 -44.0025 16.81125 -43.875 15.8125 C-41.89863304 8.99887123 -35.35474256 4.8055208 -29.70703125 1.06640625 C-20.95715181 -3.60637354 -8.96832704 -4.76534869 0 0 Z " fill="#6C9180" transform="translate(369.25,111.25)"/>
<path d="M0 0 C3.94808376 4.04208576 4.71526898 6.85294392 5 12.375 C4.84328174 19.37508231 2.55243508 25.11758656 -1.625 30.6875 C-5.09308696 33.20974506 -8.08789825 34.40005065 -12.375 34.6875 C-14.729248 34.098938 -17.06470915 33.43009349 -19.375 32.6875 C-23.66144334 32.25159051 -27.74634688 32.07486976 -31.375 34.6875 C-32.52081132 36.97912263 -32.51082384 38.29439915 -32.53271484 40.8425293 C-32.54810806 42.12978157 -32.54810806 42.12978157 -32.56381226 43.44303894 C-32.57111359 44.37320328 -32.57841492 45.30336761 -32.5859375 46.26171875 C-32.61401801 48.22852378 -32.64268255 50.19532054 -32.671875 52.16210938 C-32.71305258 55.26488917 -32.74993626 58.3675166 -32.77636719 61.47045898 C-32.80408021 64.46370463 -32.8499654 67.45624669 -32.8984375 70.44921875 C-32.90169037 71.36926193 -32.90494324 72.28930511 -32.90829468 73.23722839 C-33.01375361 78.80049175 -33.71548489 82.76807571 -36.375 87.6875 C-42.20467861 93.22569468 -47.91584425 93.11828249 -55.62109375 92.9609375 C-60.1449459 92.63141653 -64.12393797 92.03073132 -67.375 88.6875 C-69.88849689 83.66861412 -70.75239161 80.00072064 -70.76318359 74.30273438 C-70.76844055 73.60094559 -70.77369751 72.8991568 -70.77911377 72.17610168 C-70.79221807 69.87758515 -70.78361035 67.57977245 -70.7734375 65.28125 C-70.775461 63.67134469 -70.77837473 62.06144028 -70.78213501 60.45153809 C-70.78654539 57.08592965 -70.78016901 53.72056092 -70.76611328 50.35498047 C-70.74902201 46.05438911 -70.75887013 41.75435954 -70.77683067 37.45378876 C-70.78770345 34.13193578 -70.78420621 30.81021463 -70.7764473 27.48835754 C-70.77445493 25.90322299 -70.77687049 24.31807622 -70.78388596 22.73295593 C-70.79155843 20.51240619 -70.77981679 18.29274936 -70.76318359 16.07226562 C-70.76079681 14.81208618 -70.75841003 13.55190674 -70.75595093 12.25354004 C-70.17316294 6.79812534 -68.84957413 2.90562645 -64.5 -0.6875 C-58.33411951 -3.89375785 -50.85355775 -4.49147076 -44.08984375 -2.7109375 C-41.39900307 -1.71507497 -38.86976143 -0.63459979 -36.4609375 0.93359375 C-34.31814135 1.9574026 -34.31814135 1.9574026 -31.9375 0.82421875 C-31.091875 0.34597656 -30.24625 -0.13226563 -29.375 -0.625 C-20.85235882 -5.36701834 -8.45357633 -5.68956199 0 0 Z M-36.4375 13.5625 C-37.43074396 14.92736585 -38.41528898 16.29885061 -39.375 17.6875 C-39.40078125 17.01203125 -39.4265625 16.3365625 -39.453125 15.640625 C-39.50984375 14.74859375 -39.5665625 13.8565625 -39.625 12.9375 C-39.67140625 12.05578125 -39.7178125 11.1740625 -39.765625 10.265625 C-40.56888109 6.86723385 -41.51766566 5.69685124 -44.375 3.6875 C-47.96522178 3.05315668 -47.96522178 3.05315668 -51.875 3.1875 C-53.1846875 3.1771875 -54.494375 3.166875 -55.84375 3.15625 C-59.98685134 3.77954843 -60.90167859 4.38338095 -63.375 7.6875 C-63.98905355 11.08645604 -63.98905355 11.08645604 -63.90844727 14.96289062 C-63.91706284 15.68856735 -63.92567841 16.41424408 -63.93455505 17.16191101 C-63.95722387 19.55622206 -63.95047567 21.94936362 -63.94140625 24.34375 C-63.94664121 26.00997262 -63.95291723 27.67619226 -63.96018982 29.34240723 C-63.97059545 32.83274287 -63.96603008 36.32267086 -63.95141602 39.81298828 C-63.93422128 44.28575654 -63.95772991 48.75724102 -63.99290562 53.22986603 C-64.01486555 56.6700288 -64.01344177 60.10988365 -64.0051403 63.5500946 C-64.00432012 65.19912627 -64.01119634 66.84818039 -64.02591133 68.49714661 C-64.04333428 70.80293731 -64.02883811 73.1064119 -64.00610352 75.41210938 C-64.00514175 76.72352905 -64.00417999 78.03494873 -64.00318909 79.3861084 C-63.66109013 82.842394 -63.66109013 82.842394 -61.00328064 85.11120605 C-56.59564447 87.75465672 -52.35564718 87.30734628 -47.375 86.6875 C-43.00563511 85.16880027 -43.00563511 85.16880027 -40.375 81.6875 C-40.2772575 80.23852565 -40.23951317 78.78526118 -40.2331543 77.33300781 C-40.22611984 76.43157043 -40.21908539 75.53013306 -40.21183777 74.60137939 C-40.20767349 73.62433044 -40.20350922 72.64728149 -40.19921875 71.640625 C-40.17601577 69.57811485 -40.15189824 67.51561482 -40.12695312 65.453125 C-40.09186491 62.1965462 -40.06251171 58.9403384 -40.04907227 55.68359375 C-40.03357364 52.54381135 -39.99334484 49.40511869 -39.94921875 46.265625 C-39.95112717 45.29667297 -39.95303558 44.32772095 -39.95500183 43.32940674 C-39.85207553 37.62449249 -39.26829494 34.16384453 -35.375 29.6875 C-30.10133532 25.75810279 -25.8977769 24.82437262 -19.375 25.6875 C-17.69263529 26.31349617 -16.0226038 26.97502268 -14.375 27.6875 C-10.76045657 28.13009715 -9.1068208 28.21603724 -6.125 26.0625 C-2.38835315 20.99133642 -2.13352855 16.05689146 -2.01171875 9.95703125 C-2.46363122 7.13379311 -3.09106171 6.37433024 -5.375 4.6875 C-17.7888863 -1.56166725 -28.50859506 3.54454226 -36.4375 13.5625 Z " fill="#F3F4F5" transform="translate(560.375,192.3125)"/>
<path d="M0 0 C10.10712247 7.61373543 17.69654789 17.35821953 20 30 C22.25402958 46.08126987 19.57026584 59.46009736 10.078125 72.67578125 C1.77738941 82.55365661 -10.14136274 89.35014839 -23 91 C-36.96545576 92.11895793 -49.60573549 88.459934 -60.6953125 79.92578125 C-70.12063794 71.86501785 -76.31054373 62.18514284 -79 50 C-79.97707231 30.87193054 -79.97707231 30.87193054 -76 22 C-75.67128906 21.25878906 -75.34257812 20.51757812 -75.00390625 19.75390625 C-68.92614095 7.61940597 -58.51041611 -1.97497976 -45.6875 -6.375 C-29.78598327 -11.25797576 -13.92260269 -9.45412991 0 0 Z M-48 2 C-48.84949219 2.44730469 -49.69898438 2.89460937 -50.57421875 3.35546875 C-61.06991589 9.20732979 -67.68410236 16.86144955 -71.81640625 28.25 C-74.62817098 38.94650357 -73.75296376 50.04140926 -69 60 C-62.20096231 71.26781952 -54.19905158 78.06573276 -42 83 C-28.534021 85.96887726 -15.75099273 84.01931179 -4 77 C5.08101799 70.8789919 11.82573094 60.70409386 14 50 C15.31466421 37.82569162 14.36643124 26.81653197 7.0625 16.625 C-0.16012981 7.78536351 -10.2384107 -0.91096466 -22.03955078 -2.22753906 C-31.3236338 -2.86949131 -39.73554746 -2.67498804 -48 2 Z " fill="#F6F7F7" transform="translate(465,196)"/>
<path d="M0 0 C3.98308586 4.39512923 4.13580265 8.32261113 4.19287109 14.09838867 C4.20513733 15.17704697 4.20513733 15.17704697 4.21765137 16.27749634 C4.24246423 18.65764544 4.25901313 21.03773494 4.2734375 23.41796875 C4.27876118 24.2326745 4.28408485 25.04738026 4.28956985 25.88677406 C4.31628698 30.20128055 4.33566416 34.51575829 4.35009766 38.83032227 C4.36342186 42.39308431 4.39124771 45.95527157 4.43212891 49.51782227 C4.48156968 53.82668011 4.50623282 58.13501774 4.51332474 62.44414711 C4.52001827 64.08154289 4.53519078 65.71892792 4.55921555 67.35616112 C4.77265279 82.78494824 4.77265279 82.78494824 0.35305786 88.70596313 C-3.7378384 92.61841265 -9.16235387 92.29622669 -14.5 92.3125 C-15.7684375 92.32925781 -17.036875 92.34601563 -18.34375 92.36328125 C-22.37219118 91.96301947 -24.63814163 91.24281282 -28 89 C-31.65786526 84.49853503 -32.58100226 80.99372787 -32.50170898 75.32983398 C-32.50711197 74.58596436 -32.51251495 73.84209473 -32.51808167 73.07568359 C-32.53052583 70.63207449 -32.51410946 68.18965349 -32.49609375 65.74609375 C-32.49624882 64.04028766 -32.49773918 62.33448122 -32.50050354 60.62867737 C-32.50188554 57.06031649 -32.48936182 53.49235852 -32.46655273 49.92407227 C-32.43814695 45.35532333 -32.44091386 40.78724241 -32.45364285 36.21844387 C-32.46060428 32.69849462 -32.45280582 29.17869921 -32.44038582 25.65876961 C-32.43587735 23.97430067 -32.43552923 22.28981518 -32.43945122 20.60534477 C-32.44236861 18.25014362 -32.42583304 15.89585693 -32.40405273 13.54077148 C-32.40855438 12.84816727 -32.41305603 12.15556305 -32.41769409 11.44197083 C-32.35151325 7.12490709 -31.61430503 4.44419238 -29 1 C-20.92801584 -5.60435068 -8.71599703 -5.73980293 0 0 Z M-26 8 C-26.73944885 11.3630389 -26.73944885 11.3630389 -26.61523438 15.09765625 C-26.62078339 15.792612 -26.6263324 16.48756775 -26.63204956 17.20358276 C-26.64381765 19.49059992 -26.61960341 21.7756228 -26.59375 24.0625 C-26.59203802 25.65763255 -26.59210547 27.2527679 -26.59387207 28.84790039 C-26.59222046 32.18696095 -26.57355278 35.5253488 -26.54199219 38.86425781 C-26.50231457 43.13824935 -26.49794782 47.41136033 -26.50545502 51.6855011 C-26.50852869 54.97814969 -26.49639017 58.27060134 -26.47932434 61.5632019 C-26.47230709 63.13881189 -26.46916826 64.7144442 -26.47001648 66.29006958 C-26.468213 68.49456906 -26.44678628 70.69802536 -26.41992188 72.90234375 C-26.41150269 74.15523193 -26.4030835 75.40812012 -26.39440918 76.69897461 C-25.96939107 80.25618278 -25.14353496 82.15908378 -23 85 C-20.31767173 86.34116414 -18.18167741 86.16904021 -15.1875 86.1875 C-14.14980469 86.20167969 -13.11210938 86.21585937 -12.04296875 86.23046875 C-8.92884009 85.99461048 -6.77152453 85.41810501 -4 84 C-2.50407539 81.00815079 -2.85614369 78.27287025 -2.83886719 74.93579102 C-2.83390228 74.20880005 -2.82893738 73.48180908 -2.82382202 72.73278809 C-2.80919326 70.32315126 -2.80239777 67.91358022 -2.796875 65.50390625 C-2.79112479 63.83243304 -2.78536704 62.16095985 -2.77960205 60.48948669 C-2.76909048 56.98314099 -2.76324862 53.47681823 -2.75976562 49.97045898 C-2.75427598 45.47321601 -2.73023874 40.97627507 -2.70179367 36.47912693 C-2.68318994 33.0262106 -2.67796294 29.57336742 -2.67642975 26.1204052 C-2.6733983 24.46217126 -2.66535326 22.80393876 -2.65224457 21.14575386 C-2.63522849 18.82813497 -2.63705288 16.51125917 -2.64355469 14.19360352 C-2.63990906 12.87393082 -2.63626343 11.55425812 -2.63250732 10.19459534 C-2.72580019 7.04193967 -2.72580019 7.04193967 -4.39727783 5.11289978 C-7.72786416 2.800204 -10.27903803 2.74376558 -14.3125 2.625 C-15.44300781 2.57601562 -16.57351563 2.52703125 -17.73828125 2.4765625 C-22.05948059 3.17002443 -23.2857337 4.61571795 -26 8 Z " fill="#F7F8F8" transform="translate(600,193)"/>
<path d="M0 0 C6.6825 -0.12375 6.6825 -0.12375 13.5 -0.25 C15.58344727 -0.30462402 15.58344727 -0.30462402 17.70898438 -0.36035156 C26.04511222 -0.43491012 31.6279539 0.14231227 38.05859375 5.81640625 C38.74115234 6.68072266 38.74115234 6.68072266 39.4375 7.5625 C39.91058594 8.14128906 40.38367188 8.72007812 40.87109375 9.31640625 C43.82363798 13.71968156 43.65471751 18.92029516 43 24 C40.62826421 30.24308927 36.9032321 33.21545656 31 36 C30.01 36.495 30.01 36.495 29 37 C26.82175039 37.08559118 24.64084745 37.10713412 22.4609375 37.09765625 C21.28837402 37.09515869 20.11581055 37.09266113 18.90771484 37.09008789 C16.664021 37.07643188 16.664021 37.07643188 14.375 37.0625 C9.63125 37.041875 4.8875 37.02125 0 37 C0 24.79 0 12.58 0 0 Z M16 7 C13.89616695 10.39849955 12.86967549 12.16918124 13.5 16.1875 C15.37468604 19.70253633 16.24323096 20.61996239 20 22 C25.47464859 22.44455793 30.63910964 22.20425798 36 21 C36.31658501 16.96354118 36.4210379 14.67666805 34.25 11.1875 C31.20055084 8.22275776 29.27589125 7.08263544 24.984375 6.8046875 C23.38335937 6.83949219 23.38335937 6.83949219 21.75 6.875 C20.13351562 6.90207031 20.13351562 6.90207031 18.484375 6.9296875 C17.25460937 6.96449219 17.25460937 6.96449219 16 7 Z " fill="#F4F6F5" transform="translate(311,184)"/>
<path d="M0 0 C3.81295316 3.52698167 5.33494324 6.79786149 5.8984375 11.96875 C5.89070312 13.2371875 5.88296875 14.505625 5.875 15.8125 C5.88660156 17.71515625 5.88660156 17.71515625 5.8984375 19.65625 C5.34501738 24.73469343 3.78898234 28.02351766 0.1875 31.625 C-5.91836737 35.45891672 -13.86455095 35.00870027 -20.75 33.5625 C-25.1885238 32.08299207 -27.02799416 30.50984205 -29.578125 26.703125 C-30.94160952 23.1673092 -30.86857995 19.6739692 -30.875 15.9375 C-30.89949219 15.195 -30.92398438 14.4525 -30.94921875 13.6875 C-30.97708916 8.42928306 -29.94470676 5.49309255 -26.5 1.3125 C-19.28188859 -4.34493867 -7.97861554 -3.84683249 0 0 Z " fill="#F5F6F7" transform="translate(598.5,149.6875)"/>
<path d="M0 0 C0.85287598 0.16226074 1.70575195 0.32452148 2.58447266 0.49169922 C5.9961451 0.99942631 9.2013787 1.12937966 12.6484375 1.1328125 C13.90140625 1.13410156 15.154375 1.13539063 16.4453125 1.13671875 C18.39050781 1.13091797 18.39050781 1.13091797 20.375 1.125 C21.6640625 1.12886719 22.953125 1.13273438 24.28125 1.13671875 C30.61304468 1.13021793 36.74323594 0.99791427 43 0 C37.88942009 6.02318346 30.46371024 10.51209659 23 13 C21.43881572 13.06740865 19.8749748 13.08514456 18.3125 13.0625 C17.10013672 13.04896484 17.10013672 13.04896484 15.86328125 13.03515625 C14.94095703 13.01775391 14.94095703 13.01775391 14 13 C14.51691406 14.04800781 15.03382813 15.09601563 15.56640625 16.17578125 C16.232288 17.55443783 16.89762435 18.93335793 17.5625 20.3125 C18.07586914 21.34793945 18.07586914 21.34793945 18.59960938 22.40429688 C21.11328125 27.66015625 21.11328125 27.66015625 20 31 C19.01 31 18.02 31 17 31 C15.48684697 31.43585386 13.98704109 31.91951402 12.5 32.4375 C11.7265625 32.70433594 10.953125 32.97117188 10.15625 33.24609375 C9.4446875 33.49488281 8.733125 33.74367187 8 34 C5 35 5 35 2 34 C2 34.66 2 35.32 2 36 C-0.18606465 36.97654135 -2.37357464 37.94886813 -4.56640625 38.91015625 C-6.56761567 39.806364 -8.53877029 40.76938514 -10.5 41.75 C-14.81244839 43.29016014 -18.47613519 43.27697132 -23 43 C-25.21538462 36.6 -25.21538462 36.6 -24.125 33.5625 C-23.75375 33.046875 -23.3825 32.53125 -23 32 C-22.34 32 -21.68 32 -21 32 C-20.79375 31.443125 -20.5875 30.88625 -20.375 30.3125 C-18.42316968 27.02987629 -16.05769006 25.29326754 -13 23 C-12.34 23 -11.68 23 -11 23 C-11 22.34 -11 21.68 -11 21 C-7.30774453 18.84618431 -3.59696943 16.73808901 0.1875 14.75 C0.82042969 14.41484375 1.45335937 14.0796875 2.10546875 13.734375 C4 13 4 13 8 13 C7.236875 12.278125 6.47375 11.55625 5.6875 10.8125 C2.40896448 7.38147446 0 4.85089963 0 0 Z " fill="#6B917F" transform="translate(159,188)"/>
<path d="M0 0 C4.92648577 2.70038739 7.88100913 5.39302739 9.6875 10.8125 C10.58897783 22.70905172 10.58897783 22.70905172 8.1875 28.3125 C3.02526549 33.47473451 -1.93850194 37.87071953 -9.5 38.125 C-15.416298 38.0289562 -19.82693128 36.19000052 -24.109375 32.09375 C-29.04629773 26.54558922 -29.67968695 22.18887897 -29.58203125 14.8203125 C-29.1069454 9.51862981 -27.31257313 6.58318848 -23.37109375 3.09375 C-15.83631405 -2.78976122 -8.84571118 -4.17423353 0 0 Z M-20.3125 8.8125 C-23.564342 14.26720271 -23.76023642 17.82852279 -22.3125 23.8125 C-20.07752877 27.35762678 -18.1443217 29.21532386 -14.3125 30.8125 C-9.65679655 31.54048272 -6.16878313 31.24064156 -1.9375 29.125 C1.24750039 26.31916632 3.33739682 24.20487172 3.96875 19.890625 C4.23506823 13.98723767 2.54430231 10.89436926 -1.375 6.5 C-7.77943379 2.82085719 -14.9639356 3.72484118 -20.3125 8.8125 Z " fill="#F5F6F7" transform="translate(445.3125,219.1875)"/>
<path d="M0 0 C2.375 1.125 2.375 1.125 3.375 3.125 C3.52561901 5.59862762 3.60625317 8.02541815 3.625 10.5 C3.645625 11.17289063 3.66625 11.84578125 3.6875 12.5390625 C3.71065538 15.47979527 3.48963913 17.84854334 2.359375 20.57421875 C-0.71510493 22.97691271 -3.89555078 22.66535848 -7.625 22.5625 C-8.34945312 22.56958984 -9.07390625 22.57667969 -9.8203125 22.58398438 C-15.05200772 22.52124264 -15.05200772 22.52124264 -17.5625 20.78515625 C-20.71124357 15.86524443 -20.25087216 9.72014633 -19.625 4.125 C-15.51203335 -3.24997468 -7.2090587 -1.74011762 0 0 Z " fill="#6C8378" transform="translate(593.625,154.875)"/>
<path d="M0 0 C2.97 0 5.94 0 9 0 C8.608125 1.216875 8.21625 2.43375 7.8125 3.6875 C7.00096485 6.91078046 6.89211997 7.73313888 8.1875 10.9375 C9.91377207 13.2511857 9.91377207 13.2511857 13 14 C15.73865287 14.07051114 18.45027588 14.09357765 21.1875 14.0625 C21.93708984 14.05798828 22.68667969 14.05347656 23.45898438 14.04882812 C25.30602383 14.03706354 27.15302213 14.01912865 29 14 C28.19570272 17.29030704 27.53854907 19.47680671 25.08203125 21.86328125 C20.32156293 23.61904333 15.71117695 23.31189022 10.6875 23.1875 C7.160625 23.125625 3.63375 23.06375 0 23 C0 15.41 0 7.82 0 0 Z " fill="#A0BFAF" transform="translate(318,191)"/>
<path d="M0 0 C0.85287598 0.16226074 1.70575195 0.32452148 2.58447266 0.49169922 C5.9961451 0.99942631 9.2013787 1.12937966 12.6484375 1.1328125 C13.90140625 1.13410156 15.154375 1.13539063 16.4453125 1.13671875 C18.39050781 1.13091797 18.39050781 1.13091797 20.375 1.125 C21.6640625 1.12886719 22.953125 1.13273438 24.28125 1.13671875 C30.61304468 1.13021793 36.74323594 0.99791427 43 0 C37.90312431 6.00703206 29.00240058 12.49979995 20.984375 13.16796875 C14.55801326 13.22414324 8.94844345 12.68251998 3.625 8.75 C0.71661534 5.70312083 0.19253312 4.13946216 0 0 Z " fill="#E36D8B" transform="translate(159,188)"/>
<path d="M0 0 C0 2.31 0 4.62 0 7 C-0.66 7 -1.32 7 -2 7 C-2.0825 8.155 -2.165 9.31 -2.25 10.5 C-2.82074741 15.14042459 -4.42217423 19.09921459 -7 23 C-7.66 23.33 -8.32 23.66 -9 24 C-9.4125 23.29875 -9.825 22.5975 -10.25 21.875 C-14.19209464 15.39870167 -18.38285926 10.0919016 -24 5 C-21.15744616 1.85468894 -19.21919232 1.50630308 -15 1 C-13.88625 0.7215625 -13.88625 0.7215625 -12.75 0.4375 C-8.51268168 -0.23661882 -4.28141573 -0.07482086 0 0 Z " fill="#6B9080" transform="translate(249,91)"/>
<path d="M0 0 C1.74511312 3.49022625 0.99183865 7.7381104 0.87304688 11.58984375 C0.8431621 13.39347804 0.91527805 15.19810879 1 17 C1.66 17.66 2.32 18.32 3 19 C1.92621094 19.19335938 0.85242188 19.38671875 -0.25390625 19.5859375 C-1.69013733 19.84877718 -3.1263334 20.11180824 -4.5625 20.375 C-5.26697266 20.50132813 -5.97144531 20.62765625 -6.69726562 20.7578125 C-11.22714697 21.59281367 -15.59030133 22.66723956 -20 24 C-18.50746635 16.84557238 -14.42945529 10.78309156 -9 6 C-8.40574219 5.46117188 -7.81148437 4.92234375 -7.19921875 4.3671875 C-2.29375 0 -2.29375 0 0 0 Z " fill="#6B9180" transform="translate(166,63)"/>
<path d="M0 0 C2.51096119 1.85592784 3.04153747 3.14122738 3.9375 6.1875 C4.0177897 11.08517145 2.7732111 14.0203164 0 18 C-6.00426541 24.14072599 -13.61504589 26.8374739 -22.1484375 27.0546875 C-24.09903151 27.06153169 -26.04968384 27.03362614 -28 27 C-24.93900372 24.56429037 -21.76124372 22.77232182 -18.3125 20.9375 C-9.8327241 16.0341577 -3.07960538 9.44412318 0 0 Z " fill="#9FBDAF" transform="translate(379,222)"/>
<path d="M0 0 C0.495 0.309375 0.99 0.61875 1.5 0.9375 C4.97986781 2.41644382 8.24028509 2.62402851 12 3 C11.67 4.32 11.34 5.64 11 7 C9.35 7 7.7 7 6 7 C6.11442461 8.60495567 6.24194694 10.20898119 6.375 11.8125 C6.44460937 12.70582031 6.51421875 13.59914063 6.5859375 14.51953125 C6.86645036 17.24398499 6.86645036 17.24398499 9 20 C12.56769552 20.73606499 12.56769552 20.73606499 16 21 C15.67 21.66 15.34 22.32 15 23 C11.8125 23.375 11.8125 23.375 8 23 C5.8596502 21.18811972 4.61011698 19.34198833 3 17 C2.46375 17.33 1.9275 17.66 1.375 18 C-1.64275242 19.2706326 -3.74992741 19.33854923 -7 19 C-9.375 17.5 -9.375 17.5 -11 16 C-10.67 15.34 -10.34 14.68 -10 14 C-9.34 14.66 -8.68 15.32 -8 16 C-4.47105052 15.91256309 -4.47105052 15.91256309 -1 15 C1.09740836 11.85388747 1.25328219 11.08811922 1.1875 7.5 C1.18105469 6.7265625 1.17460937 5.953125 1.16796875 5.15625 C1.0730565 2.81651151 1.0730565 2.81651151 0 0 Z " fill="#151413" transform="translate(158,112)"/>
<path d="M0 0 C2.5625 2.125 2.5625 2.125 5 5 C5.10178056 9.88546697 3.22060351 12.46772519 0 16 C-3.30133235 15.7323244 -4.62503298 15.4396165 -6.8125 12.875 C-8.24140574 9.41554399 -8.21814153 6.70840602 -8 3 C-7.05125 2.690625 -6.1025 2.38125 -5.125 2.0625 C-2.13919592 1.12605258 -2.13919592 1.12605258 0 0 Z " fill="#E8999C" transform="translate(160,128)"/>
<path d="M0 0 C0.57975586 0.16298584 1.15951172 0.32597168 1.75683594 0.49389648 C5.22673123 1.27677556 8.712623 1.10312359 12.25 1.0625 C13.36761719 1.05573242 13.36761719 1.05573242 14.5078125 1.04882812 C16.3385764 1.03709246 18.16929873 1.0191585 20 1 C18.2578125 6.765625 18.2578125 6.765625 15.9375 8.875 C11.90979486 10.41752537 8.26170968 10.2506888 4 10 C3.32845067 8.71086513 2.66291141 7.41859796 2 6.125 C1.62875 5.40570313 1.2575 4.68640625 0.875 3.9453125 C0 2 0 2 0 0 Z " fill="#6D9281" transform="translate(327,204)"/>
<path d="M0 0 C6.02487844 -0.21908649 11.17549506 0.50601953 17 2 C17.77472656 2.19078125 18.54945313 2.3815625 19.34765625 2.578125 C21.23382399 3.04384543 23.11722494 3.52074817 25 4 C25.33 5.32 25.66 6.64 26 8 C20.76335879 9.85711812 16.34453709 7.90332944 11.3125 6.25 C10.44560547 5.98445312 9.57871094 5.71890625 8.68554688 5.4453125 C2.25587677 3.38381516 2.25587677 3.38381516 0 0 Z " fill="#719484" transform="translate(193,136)"/>
<path d="M0 0 C4.99687273 1.01785536 8.93194045 3.70479685 13.25 6.3125 C14.09046875 6.79912109 14.9309375 7.28574219 15.796875 7.78710938 C16.5909375 8.26599609 17.385 8.74488281 18.203125 9.23828125 C19.29608887 9.888573 19.29608887 9.888573 20.41113281 10.55200195 C20.93545898 11.02984131 21.45978516 11.50768066 22 12 C22 13.32 22 14.64 22 16 C13.73785741 14.51010543 5.92601663 7.66263812 0 2 C0 1.34 0 0.68 0 0 Z " fill="#719484" transform="translate(190,143)"/>
<path d="M0 0 C6.6 0.33 13.2 0.66 20 1 C20 1.66 20 2.32 20 3 C15.82262526 4.59138085 12.46839215 5.21278058 8 5 C8 6.65 8 8.3 8 10 C7.67 10 7.34 10 7 10 C6.9175 9.21625 6.835 8.4325 6.75 7.625 C6.27540932 4.89126491 6.27540932 4.89126491 4.125 3.75 C2.42273121 3.14919925 0.71254562 2.57084854 -1 2 C-0.67 1.34 -0.34 0.68 0 0 Z " fill="#709484" transform="translate(103,125)"/>
<path d="M0 0 C0.33 0 0.66 0 1 0 C1 6.93 1 13.86 1 21 C-2.18215653 17.81784347 -3.99454468 15.68947509 -4.00390625 11.07421875 C-3.60305579 6.73030866 -2.67122762 3.56163683 0 0 Z " fill="#9AB8AA" transform="translate(280,228)"/>
<path d="M0 0 C1.66666667 0.66666667 3.33333333 1.33333333 5 2 C5.66 1.67 6.32 1.34 7 1 C7 1.66 7 2.32 7 3 C7.70125 3.0825 8.4025 3.165 9.125 3.25 C12.66985632 4.17474513 15.07704621 5.82477857 18 8 C18 8.33 18 8.66 18 9 C11.99127189 8.65562625 7.27649735 8.14077223 2 5 C1.21625 4.608125 0.4325 4.21625 -0.375 3.8125 C-0.91125 3.544375 -1.4475 3.27625 -2 3 C-2 2.34 -2 1.68 -2 1 C-1.34 0.67 -0.68 0.34 0 0 Z " fill="#6E9281" transform="translate(111,110)"/>
<path d="M0 0 C0.99 0 1.98 0 3 0 C3.625 2.8125 3.625 2.8125 4 6 C3.01 7.485 3.01 7.485 2 9 C0.68 8.67 -0.64 8.34 -2 8 C-2.125 5.125 -2.125 5.125 -2 2 C-1.34 1.34 -0.68 0.68 0 0 Z " fill="#080A09" transform="translate(200,118)"/>
<path d="M0 0 C0.36923077 5.53846154 0.36923077 5.53846154 -1.5 7.875 C-2.2425 8.431875 -2.2425 8.431875 -3 9 C-3.99 8.67 -4.98 8.34 -6 8 C-6.36458333 3.50347222 -6.36458333 3.50347222 -4.6875 1.1875 C-3 0 -3 0 0 0 Z " fill="#171B19" transform="translate(140,105)"/>
<path d="M0 0 C0.33 0 0.66 0 1 0 C1.13277344 0.71027344 1.26554688 1.42054687 1.40234375 2.15234375 C1.57894531 3.07144531 1.75554687 3.99054688 1.9375 4.9375 C2.11152344 5.85402344 2.28554687 6.77054687 2.46484375 7.71484375 C2.77714988 9.95289844 2.77714988 9.95289844 4 11 C6.32817964 11.36760731 8.6618385 11.70241581 11 12 C10.67 12.66 10.34 13.32 10 14 C3.77262693 14.59878587 3.77262693 14.59878587 0.5 12.0625 C-1.58372971 7.80821851 -0.90980405 4.53913108 0 0 Z " fill="#2A2F2C" transform="translate(163,121)"/>
<path d="M0 0 C1.31534494 3.65857532 0.65468309 6.08026481 -0.4375 9.75 C-0.86869141 11.22726563 -0.86869141 11.22726563 -1.30859375 12.734375 C-1.53675781 13.48203125 -1.76492188 14.2296875 -2 15 C-2.66 14.34 -3.32 13.68 -4 13 C-3.7424922 7.76400814 -3.1188186 4.33922588 0 0 Z " fill="#729584" transform="translate(280,228)"/>
<path d="M0 0 C2.97 0 5.94 0 9 0 C8.34 1.98 7.68 3.96 7 6 C3.31197956 4.77065985 2.27643027 3.06140622 0 0 Z " fill="#6D9281" transform="translate(318,191)"/>
<path d="M0 0 C0.495 0.309375 0.99 0.61875 1.5 0.9375 C4.97986781 2.41644382 8.24028509 2.62402851 12 3 C12 3.33 12 3.66 12 4 C9.36 4.33 6.72 4.66 4 5 C3.67 6.65 3.34 8.3 3 10 C2.67 10 2.34 10 2 10 C1.855625 8.906875 1.71125 7.81375 1.5625 6.6875 C1.11711896 3.06877013 1.11711896 3.06877013 0 0 Z " fill="#3A453E" transform="translate(158,112)"/>
<path d="M0 0 C2 1 2 1 2 1 Z " fill="#6D8F80" transform="translate(106,111)"/>
<path d="" fill="#688D7E" transform="translate(0,0)"/>
</svg>
